<?xml version="1.0" encoding="utf-8"?>
<!-- Generator: Adobe Illustrator 15.0.0, SVG Export Plug-In . SVG Version: 6.00 Build 0)  -->
<!DOCTYPE svg PUBLIC "-//W3C//DTD SVG 1.1//EN" "http://www.w3.org/Graphics/SVG/1.1/DTD/svg11.dtd">
<svg version="1.1" id="Layer_1" xmlns="http://www.w3.org/2000/svg" xmlns:xlink="http://www.w3.org/1999/xlink" x="0px" y="0px"
	 width="839.844px" height="656.953px" viewBox="0 0 839.844 656.953" enable-background="new 0 0 839.844 656.953"
	 xml:space="preserve">
<g id="roomLayer">
	<g id="pos144">
		<rect x="713.43" y="412.739" fill="#E3E3DD" width="72.826" height="48.589"/>
	</g>
	<g id="pos140">
		<rect x="541.868" y="314.19" fill="#E3E3DD" width="44.035" height="31.169"/>
	</g>
	<g id="pos139">
		<rect x="541.868" y="345.359" fill="#E3E3DD" width="44.035" height="53.526"/>
	</g>
	<g id="pos137">
		<rect x="501.917" y="454.971" fill="#E3E3DD" width="26.935" height="26.812"/>
	</g>
	<g id="pos136">
		<rect x="528.852" y="454.971" fill="#E3E3DD" width="19.291" height="26.812"/>
	</g>
	<g id="pos135">
		<rect x="548.144" y="454.971" fill="#E3E3DD" width="19.291" height="26.812"/>
	</g>
	<g id="pos134">
		<rect x="567.435" y="454.971" fill="#E3E3DD" width="19.291" height="26.812"/>
	</g>
	<g id="pos133">
		<rect x="586.726" y="442.14" fill="#E3E3DD" width="34.304" height="39.599"/>
	</g>
	<g id="pos130">
		<polygon fill="#E3E3DD" points="729.568,481.735 684.985,481.735 684.985,442.14 713.43,442.14 713.43,462.341 729.568,462.432 		
			"/>
	</g>
	<g id="pos128">
		<rect x="502.792" y="183.706" fill="#E3E3DD" width="20.982" height="24.272"/>
	</g>
	<g id="pos127">
		<rect x="523.774" y="183.706" fill="#E3E3DD" width="20.98" height="24.272"/>
	</g>
	<g id="pos123">
		<polygon fill="#E3E3DD" points="806.051,69.013 633.996,69.013 633.996,89.26 700.629,89.265 700.629,207.978 806.051,207.978 		
			"/>
	</g>
	<g id="pos114">
		<rect x="306.304" y="69.013" fill="#E3E3DD" width="87.816" height="52.261"/>
	</g>
	<g id="pos113">
		<rect x="254.248" y="69.013" fill="#E3E3DD" width="52.056" height="52.261"/>
	</g>
	<g id="pos112">
		<rect x="216.384" y="69.013" fill="#E3E3DD" width="37.864" height="52.261"/>
	</g>
	<g id="pos111">
		<rect x="177.708" y="69.013" fill="#E3E3DD" width="38.676" height="52.261"/>
	</g>
	<g id="pos110">
		<rect x="139.032" y="69.013" fill="#E3E3DD" width="38.676" height="52.261"/>
	</g>
	<g id="pos109">
		<rect x="35.198" y="69.013" fill="#E3E3DD" width="78.195" height="44.874"/>
	</g>
	<g id="pos108">
		<rect x="35.198" y="113.887" fill="#E3E3DD" width="39.098" height="38.417"/>
	</g>
	<g id="pos107">
		<rect x="35.198" y="152.304" fill="#E3E3DD" width="39.098" height="42.846"/>
	</g>
	<g id="pos102">
		<rect x="35.198" y="356.371" fill="#E3E3DD" width="39.098" height="56.683"/>
	</g>
	<g id="pos101a">
		<rect x="54.714" y="413.639" fill="#E3E3DD" width="57.526" height="49.489"/>
	</g>
</g>
<g id="Text">
	<text transform="matrix(1 0 0 1 282.9478 598.6523)" fill="#8C8A7A" font-family="'ApexNew-Book'" font-size="27.5384">{ this </text>
	<text transform="matrix(1 0 0 1 341.4658 598.6523)" fill="#8C8A7A" font-family="'ApexNew-Book'" font-size="27.5384">w</text>
	<text transform="matrix(1 0 0 1 360.3301 598.6523)" fill="#8C8A7A" font-family="'ApexNew-Book'" font-size="27.5384">ay to N. Mary St. }</text>
</g>
<g id="Layer_1_1_">
	<g id="pos400">
		<circle fill="none" stroke="#8DB6BA" stroke-miterlimit="10" cx="464.211" cy="229.572" r="4.545"/>
	</g>
	<g id="pos399">
		<circle fill="none" stroke="#8DB6BA" stroke-miterlimit="10" cx="464.211" cy="213.038" r="4.546"/>
	</g>
	<g id="pos398">
		<circle fill="none" stroke="#8DB6BA" stroke-miterlimit="10" cx="464.211" cy="196.503" r="4.546"/>
	</g>
	<g id="pos397">
		<circle fill="none" stroke="#8DB6BA" stroke-miterlimit="10" cx="464.211" cy="179.969" r="4.545"/>
	</g>
	<g id="pos396">
		<circle fill="none" stroke="#8DB6BA" stroke-miterlimit="10" cx="471.157" cy="163.435" r="4.546"/>
	</g>
	<g id="pos395">
		<circle fill="none" stroke="#8DB6BA" stroke-miterlimit="10" cx="477.126" cy="179.969" r="4.545"/>
	</g>
	<g id="pos394">
		<circle fill="none" stroke="#8DB6BA" stroke-miterlimit="10" cx="477.126" cy="196.503" r="4.546"/>
	</g>
	<g id="pos393">
		<circle fill="none" stroke="#8DB6BA" stroke-miterlimit="10" cx="477.124" cy="213.038" r="4.546"/>
	</g>
	<g id="pos392">
		<circle fill="none" stroke="#8DB6BA" stroke-miterlimit="10" cx="477.124" cy="229.572" r="4.545"/>
	</g>
	<g id="pos391">
		<circle fill="none" stroke="#8DB6BA" stroke-miterlimit="10" cx="470.18" cy="246.105" r="4.546"/>
	</g>
	<g id="pos390">
		<circle fill="none" stroke="#8DB6BA" stroke-miterlimit="10" cx="424.175" cy="265.689" r="4.546"/>
	</g>
	<g id="pos389">
		<circle fill="none" stroke="#8DB6BA" stroke-miterlimit="10" cx="424.175" cy="249.495" r="4.546"/>
	</g>
	<g id="pos388a">
		<circle fill="none" stroke="#8DB6BA" stroke-miterlimit="10" cx="431.12" cy="195.58" r="4.546"/>
	</g>
	<g id="pos388">
		<circle fill="none" stroke="#8DB6BA" stroke-miterlimit="10" cx="424.175" cy="180.718" r="4.545"/>
	</g>
	<g id="pos387">
		<circle fill="none" stroke="#8DB6BA" stroke-miterlimit="10" cx="424.175" cy="164.958" r="4.546"/>
	</g>
	<g id="pos386">
		<circle fill="none" stroke="#8DB6BA" stroke-miterlimit="10" cx="431.12" cy="149.198" r="4.545"/>
	</g>
	<g id="pos385">
		<circle fill="none" stroke="#8DB6BA" stroke-miterlimit="10" cx="437.088" cy="164.958" r="4.546"/>
	</g>
	<g id="pos384">
		<circle fill="none" stroke="#8DB6BA" stroke-miterlimit="10" cx="437.088" cy="180.718" r="4.545"/>
	</g>
	<g id="pos383">
		<circle fill="none" stroke="#8DB6BA" stroke-miterlimit="10" cx="431.12" cy="233.3" r="4.545"/>
	</g>
	<g id="pos382">
		<circle fill="none" stroke="#8DB6BA" stroke-miterlimit="10" cx="437.089" cy="249.496" r="4.546"/>
	</g>
	<g id="pos381">
		<circle fill="none" stroke="#8DB6BA" stroke-miterlimit="10" cx="437.089" cy="265.69" r="4.546"/>
	</g>
	<g id="pos380">
		<circle fill="none" stroke="#8DB6BA" stroke-miterlimit="10" cx="381.128" cy="229.572" r="4.545"/>
	</g>
	<g id="pos379">
		<circle fill="none" stroke="#8DB6BA" stroke-miterlimit="10" cx="381.128" cy="213.038" r="4.546"/>
	</g>
	<g id="pos378">
		<circle fill="none" stroke="#8DB6BA" stroke-miterlimit="10" cx="381.129" cy="196.503" r="4.546"/>
	</g>
	<g id="pos377">
		<circle fill="none" stroke="#8DB6BA" stroke-miterlimit="10" cx="381.129" cy="179.969" r="4.545"/>
	</g>
	<g id="pos376">
		<circle fill="none" stroke="#8DB6BA" stroke-miterlimit="10" cx="388.073" cy="163.435" r="4.546"/>
	</g>
	<g id="pos375">
		<circle fill="none" stroke="#8DB6BA" stroke-miterlimit="10" cx="394.042" cy="179.969" r="4.545"/>
	</g>
	<g id="pos374">
		<circle fill="none" stroke="#8DB6BA" stroke-miterlimit="10" cx="394.042" cy="196.503" r="4.546"/>
	</g>
	<g id="pos373">
		<circle fill="none" stroke="#8DB6BA" stroke-miterlimit="10" cx="394.042" cy="213.038" r="4.546"/>
	</g>
	<g id="pos372">
		<circle fill="none" stroke="#8DB6BA" stroke-miterlimit="10" cx="394.042" cy="229.572" r="4.545"/>
	</g>
	<g id="pos371">
		<circle fill="none" stroke="#8DB6BA" stroke-miterlimit="10" cx="387.096" cy="246.105" r="4.546"/>
	</g>
	<g id="pos370">
		<circle fill="none" stroke="#8DB6BA" stroke-miterlimit="10" cx="342.729" cy="265.69" r="4.546"/>
	</g>
	<g id="pos369">
		<circle fill="none" stroke="#8DB6BA" stroke-miterlimit="10" cx="342.729" cy="249.495" r="4.546"/>
	</g>
	<g id="pos368a">
		<circle fill="none" stroke="#8DB6BA" stroke-miterlimit="10" cx="349.676" cy="195.58" r="4.546"/>
	</g>
	<g id="pos368">
		<circle fill="none" stroke="#8DB6BA" stroke-miterlimit="10" cx="342.729" cy="180.718" r="4.545"/>
	</g>
	<g id="pos367">
		<circle fill="none" stroke="#8DB6BA" stroke-miterlimit="10" cx="342.729" cy="164.958" r="4.546"/>
	</g>
	<g id="pos366">
		<circle fill="none" stroke="#8DB6BA" stroke-miterlimit="10" cx="349.676" cy="149.198" r="4.545"/>
	</g>
	<g id="pos365">
		<circle fill="none" stroke="#8DB6BA" stroke-miterlimit="10" cx="355.644" cy="164.958" r="4.546"/>
	</g>
	<g id="pos364">
		<circle fill="none" stroke="#8DB6BA" stroke-miterlimit="10" cx="355.643" cy="180.718" r="4.545"/>
	</g>
	<g id="pos363">
		<circle fill="none" stroke="#8DB6BA" stroke-miterlimit="10" cx="349.676" cy="233.3" r="4.545"/>
	</g>
	<g id="pos362">
		<circle fill="none" stroke="#8DB6BA" stroke-miterlimit="10" cx="355.644" cy="249.494" r="4.546"/>
	</g>
	<g id="pos361">
		<circle fill="none" stroke="#8DB6BA" stroke-miterlimit="10" cx="355.644" cy="265.689" r="4.546"/>
	</g>
	<g id="pos360">
		<circle fill="none" stroke="#8DB6BA" stroke-miterlimit="10" cx="299.358" cy="229.571" r="4.545"/>
	</g>
	<g id="pos359">
		<circle fill="none" stroke="#8DB6BA" stroke-miterlimit="10" cx="299.358" cy="213.037" r="4.546"/>
	</g>
	<g id="pos358">
		<circle fill="none" stroke="#8DB6BA" stroke-miterlimit="10" cx="299.358" cy="196.503" r="4.546"/>
	</g>
	<g id="pos357">
		<circle fill="none" stroke="#8DB6BA" stroke-miterlimit="10" cx="299.358" cy="179.969" r="4.545"/>
	</g>
	<g id="pos356">
		<circle fill="none" stroke="#8DB6BA" stroke-miterlimit="10" cx="306.304" cy="163.435" r="4.546"/>
	</g>
	<g id="pos355">
		<circle fill="none" stroke="#8DB6BA" stroke-miterlimit="10" cx="312.271" cy="179.969" r="4.545"/>
	</g>
	<g id="pos354">
		<circle fill="none" stroke="#8DB6BA" stroke-miterlimit="10" cx="312.271" cy="196.503" r="4.546"/>
	</g>
	<g id="pos353">
		<circle fill="none" stroke="#8DB6BA" stroke-miterlimit="10" cx="312.271" cy="213.037" r="4.546"/>
	</g>
	<g id="pos352">
		<circle fill="none" stroke="#8DB6BA" stroke-miterlimit="10" cx="312.271" cy="229.571" r="4.545"/>
	</g>
	<g id="pos351">
		<circle fill="none" stroke="#8DB6BA" stroke-miterlimit="10" cx="305.326" cy="246.105" r="4.546"/>
	</g>
	<g id="pos350">
		<circle fill="none" stroke="#8DB6BA" stroke-miterlimit="10" cx="258.738" cy="265.689" r="4.546"/>
	</g>
	<g id="pos349">
		<circle fill="none" stroke="#8DB6BA" stroke-miterlimit="10" cx="258.738" cy="249.495" r="4.546"/>
	</g>
	<g id="pos348a">
		<circle fill="none" stroke="#8DB6BA" stroke-miterlimit="10" cx="265.683" cy="195.58" r="4.546"/>
	</g>
	<g id="pos348">
		<circle fill="none" stroke="#8DB6BA" stroke-miterlimit="10" cx="258.738" cy="180.718" r="4.545"/>
	</g>
	<g id="pos347">
		<circle fill="none" stroke="#8DB6BA" stroke-miterlimit="10" cx="258.739" cy="164.958" r="4.546"/>
	</g>
	<g id="pos346">
		<circle fill="none" stroke="#8DB6BA" stroke-miterlimit="10" cx="265.683" cy="149.198" r="4.545"/>
	</g>
	<g id="pos345">
		<circle fill="none" stroke="#8DB6BA" stroke-miterlimit="10" cx="271.652" cy="164.958" r="4.546"/>
	</g>
	<g id="pos344">
		<circle fill="none" stroke="#8DB6BA" stroke-miterlimit="10" cx="271.652" cy="180.718" r="4.545"/>
	</g>
	<g id="pos343">
		<circle fill="none" stroke="#8DB6BA" stroke-miterlimit="10" cx="265.683" cy="233.3" r="4.545"/>
	</g>
	<g id="pos342">
		<circle fill="none" stroke="#8DB6BA" stroke-miterlimit="10" cx="271.651" cy="249.495" r="4.546"/>
	</g>
	<g id="pos341">
		<circle fill="none" stroke="#8DB6BA" stroke-miterlimit="10" cx="271.651" cy="265.689" r="4.546"/>
	</g>
	<g id="pos340">
		<circle fill="none" stroke="#8DB6BA" stroke-miterlimit="10" cx="220.085" cy="229.571" r="4.545"/>
	</g>
	<g id="pos339">
		<circle fill="none" stroke="#8DB6BA" stroke-miterlimit="10" cx="220.085" cy="213.037" r="4.546"/>
	</g>
	<g id="pos338">
		<circle fill="none" stroke="#8DB6BA" stroke-miterlimit="10" cx="220.086" cy="196.503" r="4.546"/>
	</g>
	<g id="pos337">
		<circle fill="none" stroke="#8DB6BA" stroke-miterlimit="10" cx="220.086" cy="179.969" r="4.545"/>
	</g>
	<g id="pos336">
		<circle fill="none" stroke="#8DB6BA" stroke-miterlimit="10" cx="227.031" cy="163.435" r="4.546"/>
	</g>
	<g id="pos335">
		<circle fill="none" stroke="#8DB6BA" stroke-miterlimit="10" cx="233" cy="179.969" r="4.545"/>
	</g>
	<g id="pos334">
		<circle fill="none" stroke="#8DB6BA" stroke-miterlimit="10" cx="233" cy="196.503" r="4.546"/>
	</g>
	<g id="pos333">
		<circle fill="none" stroke="#8DB6BA" stroke-miterlimit="10" cx="232.999" cy="213.037" r="4.546"/>
	</g>
	<g id="pos332">
		<circle fill="none" stroke="#8DB6BA" stroke-miterlimit="10" cx="232.999" cy="229.571" r="4.545"/>
	</g>
	<g id="pos331">
		<circle fill="none" stroke="#8DB6BA" stroke-miterlimit="10" cx="226.053" cy="246.105" r="4.546"/>
	</g>
	<g id="pos330">
		<circle fill="none" stroke="#8DB6BA" stroke-miterlimit="10" cx="181.327" cy="265.69" r="4.546"/>
	</g>
	<g id="pos329">
		<circle fill="none" stroke="#8DB6BA" stroke-miterlimit="10" cx="181.327" cy="249.495" r="4.546"/>
	</g>
	<g id="pos328">
		<circle fill="none" stroke="#8DB6BA" stroke-miterlimit="10" cx="181.327" cy="180.718" r="4.545"/>
	</g>
	<g id="pos327">
		<circle fill="none" stroke="#8DB6BA" stroke-miterlimit="10" cx="181.327" cy="164.958" r="4.546"/>
	</g>
	<g id="pos326">
		<circle fill="none" stroke="#8DB6BA" stroke-miterlimit="10" cx="188.274" cy="149.198" r="4.545"/>
	</g>
	<g id="pos325">
		<circle fill="none" stroke="#8DB6BA" stroke-miterlimit="10" cx="194.241" cy="164.958" r="4.546"/>
	</g>
	<g id="pos324">
		<circle fill="none" stroke="#8DB6BA" stroke-miterlimit="10" cx="194.24" cy="180.718" r="4.545"/>
	</g>
	<g id="pos323">
		<circle fill="none" stroke="#8DB6BA" stroke-miterlimit="10" cx="188.274" cy="233.3" r="4.545"/>
	</g>
	<g id="pos322">
		<circle fill="none" stroke="#8DB6BA" stroke-miterlimit="10" cx="194.241" cy="249.495" r="4.546"/>
	</g>
	<g id="pos321">
		<circle fill="none" stroke="#8DB6BA" stroke-miterlimit="10" cx="194.241" cy="265.689" r="4.546"/>
	</g>
	<g id="pos285">
		<circle fill="none" stroke="#8DB6BA" stroke-miterlimit="10" cx="180.805" cy="462.693" r="4.546"/>
	</g>
	<g id="pos284">
		<circle fill="none" stroke="#8DB6BA" stroke-miterlimit="10" cx="180.805" cy="446.499" r="4.546"/>
	</g>
	<g id="pos283">
		<circle fill="none" stroke="#8DB6BA" stroke-miterlimit="10" cx="180.805" cy="377.723" r="4.546"/>
	</g>
	<g id="pos282">
		<circle fill="none" stroke="#8DB6BA" stroke-miterlimit="10" cx="180.806" cy="361.965" r="4.546"/>
	</g>
	<g id="pos283a">
		<circle fill="none" stroke="#8DB6BA" stroke-miterlimit="10" cx="187.752" cy="393.483" r="4.546"/>
	</g>
	<g id="pos281">
		<circle fill="none" stroke="#8DB6BA" stroke-miterlimit="10" cx="193.718" cy="361.965" r="4.546"/>
	</g>
	<g id="pos280">
		<circle fill="none" stroke="#8DB6BA" stroke-miterlimit="10" cx="193.719" cy="377.723" r="4.546"/>
	</g>
	<g id="pos279">
		<circle fill="none" stroke="#8DB6BA" stroke-miterlimit="10" cx="187.752" cy="430.305" r="4.546"/>
	</g>
	<g id="pos278">
		<circle fill="none" stroke="#8DB6BA" stroke-miterlimit="10" cx="193.719" cy="446.499" r="4.546"/>
	</g>
	<g id="pos277">
		<circle fill="none" stroke="#8DB6BA" stroke-miterlimit="10" cx="193.719" cy="462.693" r="4.546"/>
	</g>
	<g id="pos276">
		<circle fill="none" stroke="#8DB6BA" stroke-miterlimit="10" cx="219.563" cy="417.308" r="4.546"/>
	</g>
	<g id="pos275">
		<circle fill="none" stroke="#8DB6BA" stroke-miterlimit="10" cx="219.563" cy="400.772" r="4.545"/>
	</g>
	<g id="pos274">
		<circle fill="none" stroke="#8DB6BA" stroke-miterlimit="10" cx="219.563" cy="384.239" r="4.546"/>
	</g>
	<g id="pos273">
		<circle fill="none" stroke="#8DB6BA" stroke-miterlimit="10" cx="219.564" cy="367.705" r="4.546"/>
	</g>
	<g id="pos272">
		<circle fill="none" stroke="#8DB6BA" stroke-miterlimit="10" cx="219.564" cy="351.172" r="4.546"/>
	</g>
	<g id="pos271">
		<circle fill="none" stroke="#8DB6BA" stroke-miterlimit="10" cx="226.509" cy="334.638" r="4.546"/>
	</g>
	<g id="pos270">
		<circle fill="none" stroke="#8DB6BA" stroke-miterlimit="10" cx="232.478" cy="351.173" r="4.546"/>
	</g>
	<g id="pos269">
		<circle fill="none" stroke="#8DB6BA" stroke-miterlimit="10" cx="232.478" cy="367.707" r="4.546"/>
	</g>
	<g id="pos268">
		<circle fill="none" stroke="#8DB6BA" stroke-miterlimit="10" cx="232.477" cy="384.239" r="4.546"/>
	</g>
	<g id="pos267">
		<circle fill="none" stroke="#8DB6BA" stroke-miterlimit="10" cx="232.477" cy="400.772" r="4.545"/>
	</g>
	<g id="pos266">
		<circle fill="none" stroke="#8DB6BA" stroke-miterlimit="10" cx="232.477" cy="417.308" r="4.546"/>
	</g>
	<g id="pos265">
		<circle fill="none" stroke="#8DB6BA" stroke-miterlimit="10" cx="225.531" cy="433.842" r="4.546"/>
	</g>
	<g id="pos264">
		<circle fill="none" stroke="#8DB6BA" stroke-miterlimit="10" cx="258.216" cy="462.693" r="4.546"/>
	</g>
	<g id="pos263">
		<circle fill="none" stroke="#8DB6BA" stroke-miterlimit="10" cx="258.217" cy="446.499" r="4.546"/>
	</g>
	<g id="pos262">
		<circle fill="none" stroke="#8DB6BA" stroke-miterlimit="10" cx="258.216" cy="377.725" r="4.545"/>
	</g>
	<g id="pos261">
		<circle fill="none" stroke="#8DB6BA" stroke-miterlimit="10" cx="258.216" cy="361.965" r="4.546"/>
	</g>
	<g id="pos262a">
		<circle fill="none" stroke="#8DB6BA" stroke-miterlimit="10" cx="265.161" cy="393.482" r="4.545"/>
	</g>
	<g id="pos260">
		<circle fill="none" stroke="#8DB6BA" stroke-miterlimit="10" cx="271.13" cy="361.964" r="4.546"/>
	</g>
	<g id="pos259">
		<circle fill="none" stroke="#8DB6BA" stroke-miterlimit="10" cx="271.13" cy="377.723" r="4.546"/>
	</g>
	<g id="pos258">
		<circle fill="none" stroke="#8DB6BA" stroke-miterlimit="10" cx="265.161" cy="430.305" r="4.546"/>
	</g>
	<g id="pos257">
		<circle fill="none" stroke="#8DB6BA" stroke-miterlimit="10" cx="271.13" cy="446.499" r="4.546"/>
	</g>
	<g id="pos256">
		<circle fill="none" stroke="#8DB6BA" stroke-miterlimit="10" cx="271.13" cy="462.693" r="4.546"/>
	</g>
	<g id="pos255">
		<circle fill="none" stroke="#8DB6BA" stroke-miterlimit="10" cx="298.836" cy="417.308" r="4.546"/>
	</g>
	<g id="pos254">
		<circle fill="none" stroke="#8DB6BA" stroke-miterlimit="10" cx="298.836" cy="400.772" r="4.545"/>
	</g>
	<g id="pos253">
		<circle fill="none" stroke="#8DB6BA" stroke-miterlimit="10" cx="298.836" cy="384.239" r="4.546"/>
	</g>
	<g id="pos252">
		<circle fill="none" stroke="#8DB6BA" stroke-miterlimit="10" cx="298.836" cy="367.705" r="4.546"/>
	</g>
	<g id="pos251">
		<circle fill="none" stroke="#8DB6BA" stroke-miterlimit="10" cx="298.836" cy="351.172" r="4.546"/>
	</g>
	<g id="pos250">
		<circle fill="none" stroke="#8DB6BA" stroke-miterlimit="10" cx="305.782" cy="334.638" r="4.546"/>
	</g>
	<g id="pos249">
		<circle fill="none" stroke="#8DB6BA" stroke-miterlimit="10" cx="311.749" cy="351.172" r="4.546"/>
	</g>
	<g id="pos248">
		<circle fill="none" stroke="#8DB6BA" stroke-miterlimit="10" cx="311.749" cy="367.705" r="4.546"/>
	</g>
	<g id="pos247">
		<circle fill="none" stroke="#8DB6BA" stroke-miterlimit="10" cx="311.749" cy="384.239" r="4.546"/>
	</g>
	<g id="pos246">
		<circle fill="none" stroke="#8DB6BA" stroke-miterlimit="10" cx="311.749" cy="400.772" r="4.545"/>
	</g>
	<g id="pos245">
		<circle fill="none" stroke="#8DB6BA" stroke-miterlimit="10" cx="311.749" cy="417.308" r="4.546"/>
	</g>
	<g id="pos244">
		<circle fill="none" stroke="#8DB6BA" stroke-miterlimit="10" cx="304.804" cy="433.842" r="4.546"/>
	</g>
	<g id="pos239">
		<circle fill="none" stroke="#8DB6BA" stroke-miterlimit="10" cx="639.843" cy="402.523" r="4.545"/>
	</g>
	<g id="pos238">
		<circle fill="none" stroke="#8DB6BA" stroke-miterlimit="10" cx="639.843" cy="385.989" r="4.546"/>
	</g>
	<g id="pos237">
		<circle fill="none" stroke="#8DB6BA" stroke-miterlimit="10" cx="639.843" cy="369.455" r="4.546"/>
	</g>
	<g id="pos236">
		<circle fill="none" stroke="#8DB6BA" stroke-miterlimit="10" cx="639.843" cy="352.922" r="4.546"/>
	</g>
	<g id="pos235">
		<circle fill="none" stroke="#8DB6BA" stroke-miterlimit="10" cx="652.756" cy="352.922" r="4.546"/>
	</g>
	<g id="pos234">
		<circle fill="none" stroke="#8DB6BA" stroke-miterlimit="10" cx="652.756" cy="369.455" r="4.546"/>
	</g>
	<g id="pos233">
		<circle fill="none" stroke="#8DB6BA" stroke-miterlimit="10" cx="652.756" cy="385.989" r="4.546"/>
	</g>
	<g id="pos232">
		<circle fill="none" stroke="#8DB6BA" stroke-miterlimit="10" cx="652.756" cy="402.523" r="4.545"/>
	</g>
	<g id="pos231">
		<circle fill="none" stroke="#8DB6BA" stroke-miterlimit="10" cx="646.513" cy="419.057" r="4.545"/>
	</g>
	<g id="pos230">
		<circle fill="none" stroke="#8DB6BA" stroke-miterlimit="10" cx="681.87" cy="402.523" r="4.545"/>
	</g>
	<g id="pos229">
		<circle fill="none" stroke="#8DB6BA" stroke-miterlimit="10" cx="681.87" cy="385.989" r="4.546"/>
	</g>
	<g id="pos228">
		<circle fill="none" stroke="#8DB6BA" stroke-miterlimit="10" cx="681.87" cy="369.455" r="4.546"/>
	</g>
	<g id="pos227">
		<circle fill="none" stroke="#8DB6BA" stroke-miterlimit="10" cx="681.87" cy="352.922" r="4.546"/>
	</g>
	<g id="pos226">
		<circle fill="none" stroke="#8DB6BA" stroke-miterlimit="10" cx="694.783" cy="352.922" r="4.546"/>
	</g>
	<g id="pos225">
		<circle fill="none" stroke="#8DB6BA" stroke-miterlimit="10" cx="694.783" cy="369.455" r="4.546"/>
	</g>
	<g id="pos224">
		<circle fill="none" stroke="#8DB6BA" stroke-miterlimit="10" cx="694.783" cy="385.989" r="4.546"/>
	</g>
	<g id="pos223">
		<circle fill="none" stroke="#8DB6BA" stroke-miterlimit="10" cx="694.783" cy="402.523" r="4.545"/>
	</g>
	<g id="pos222a">
		<circle fill="none" stroke="#8DB6BA" stroke-miterlimit="10" cx="681.87" cy="419.057" r="4.545"/>
	</g>
	<g id="pos222">
		<circle fill="none" stroke="#8DB6BA" stroke-miterlimit="10" cx="694.783" cy="419.057" r="4.545"/>
	</g>
	<g id="pos221">
		<circle fill="none" stroke="#8DB6BA" stroke-miterlimit="10" cx="692.114" cy="271.217" r="4.545"/>
	</g>
	<g id="pos220">
		<circle fill="none" stroke="#8DB6BA" stroke-miterlimit="10" cx="675.581" cy="271.215" r="4.546"/>
	</g>
	<g id="pos219">
		<circle fill="none" stroke="#8DB6BA" stroke-miterlimit="10" cx="659.046" cy="271.213" r="4.546"/>
	</g>
	<g id="pos218">
		<circle fill="none" stroke="#8DB6BA" stroke-miterlimit="10" cx="642.512" cy="271.215" r="4.546"/>
	</g>
	<g id="pos217">
		<circle fill="none" stroke="#8DB6BA" stroke-miterlimit="10" cx="569.56" cy="271.217" r="4.545"/>
	</g>
	<g id="pos216">
		<circle fill="none" stroke="#8DB6BA" stroke-miterlimit="10" cx="553.025" cy="271.216" r="4.545"/>
	</g>
	<g id="pos215">
		<circle fill="none" stroke="#8DB6BA" stroke-miterlimit="10" cx="536.491" cy="271.213" r="4.546"/>
	</g>
	<g id="pos214">
		<circle fill="none" stroke="#8DB6BA" stroke-miterlimit="10" cx="519.957" cy="271.214" r="4.546"/>
	</g>
	<g id="pos214a">
		<circle fill="none" stroke="#8DB6BA" stroke-miterlimit="10" cx="503.423" cy="271.214" r="4.546"/>
	</g>
	<g id="pos213">
		<circle fill="none" stroke="#8DB6BA" stroke-miterlimit="10" cx="536.491" cy="243.718" r="4.545"/>
	</g>
	<g id="pos212">
		<circle fill="none" stroke="#8DB6BA" stroke-miterlimit="10" cx="553.024" cy="243.717" r="4.545"/>
	</g>
	<g id="pos211">
		<circle fill="none" stroke="#8DB6BA" stroke-miterlimit="10" cx="569.56" cy="243.719" r="4.545"/>
	</g>
	<g id="pos210">
		<circle fill="none" stroke="#8DB6BA" stroke-miterlimit="10" cx="642.512" cy="243.719" r="4.545"/>
	</g>
	<g id="pos209">
		<circle fill="none" stroke="#8DB6BA" stroke-miterlimit="10" cx="659.046" cy="243.717" r="4.545"/>
	</g>
	<g id="pos208">
		<circle fill="none" stroke="#8DB6BA" stroke-miterlimit="10" cx="675.581" cy="243.719" r="4.545"/>
	</g>
	<g id="pos207">
		<circle fill="none" stroke="#8DB6BA" stroke-miterlimit="10" cx="692.114" cy="243.719" r="4.545"/>
	</g>
	<g id="pos206">
		<circle fill="none" stroke="#8DB6BA" stroke-miterlimit="10" cx="692.114" cy="230.805" r="4.545"/>
	</g>
	<g id="pos205">
		<circle fill="none" stroke="#8DB6BA" stroke-miterlimit="10" cx="675.581" cy="230.805" r="4.545"/>
	</g>
	<g id="pos204">
		<circle fill="none" stroke="#8DB6BA" stroke-miterlimit="10" cx="659.046" cy="230.805" r="4.545"/>
	</g>
	<g id="pos203">
		<circle fill="none" stroke="#8DB6BA" stroke-miterlimit="10" cx="642.512" cy="230.805" r="4.545"/>
	</g>
	<g id="pos202">
		<circle fill="none" stroke="#8DB6BA" stroke-miterlimit="10" cx="569.56" cy="230.805" r="4.545"/>
	</g>
	<g id="pos201">
		<circle fill="none" stroke="#8DB6BA" stroke-miterlimit="10" cx="553.024" cy="230.805" r="4.545"/>
	</g>
	<g id="pos200">
		<circle fill="none" stroke="#8DB6BA" stroke-miterlimit="10" cx="536.491" cy="230.805" r="4.545"/>
	</g>
	<g id="pos132">
		<circle fill="none" stroke="#8DB6BA" stroke-miterlimit="10" cx="637.422" cy="461.404" r="4.546"/>
	</g>
	<g id="pos131">
		<circle fill="none" stroke="#8DB6BA" stroke-miterlimit="10" cx="669.271" cy="461.404" r="4.546"/>
	</g>
	<g id="pos117">
		<circle fill="none" stroke="#8DB6BA" stroke-miterlimit="10" cx="513.771" cy="163.435" r="4.546"/>
	</g>
	<g id="pos116b">
		<circle fill="none" stroke="#8DB6BA" stroke-miterlimit="10" cx="520.339" cy="95.84" r="4.546"/>
	</g>
	<g id="pos116a">
		<circle fill="none" stroke="#8DB6BA" stroke-miterlimit="10" cx="507.425" cy="95.84" r="4.546"/>
	</g>
	<g id="pos106">
		<circle fill="none" stroke="#8DB6BA" stroke-miterlimit="10" cx="54.792" cy="217.715" r="4.546"/>
	</g>
	<g id="pos105">
		<circle fill="none" stroke="#8DB6BA" stroke-miterlimit="10" cx="54.792" cy="263.008" r="4.545"/>
	</g>
	<g id="pos103">
		<circle fill="none" stroke="#8DB6BA" stroke-miterlimit="10" cx="54.792" cy="335.817" r="4.546"/>
	</g>
	<g id="pos100">
		<circle fill="none" stroke="#8DB6BA" stroke-miterlimit="10" cx="456.025" cy="430.486" r="4.546"/>
	</g>
</g>
<g id="Floorplan">
	<g id="floorplan">
		
			<line fill="none" stroke="#BDBCAF" stroke-width="0.5" stroke-miterlimit="10" x1="74.282" y1="413.938" x2="112.24" y2="413.938"/>
		
			<line fill="none" stroke="#BDBCAF" stroke-width="0.5" stroke-miterlimit="10" x1="713.43" y1="282.931" x2="163.779" y2="282.931"/>
		
			<line fill="none" stroke="#BDBCAF" stroke-width="0.5" stroke-miterlimit="10" x1="421.538" y1="313.785" x2="713.43" y2="313.785"/>
		<polygon fill="none" stroke="#4D4038" stroke-width="3" stroke-miterlimit="10" points="34.918,69.013 806.051,69.013 
			806.051,412.739 786.256,412.739 786.256,461.328 729.568,461.328 729.568,482.024 501.917,482.024 501.917,462.229 
			339.052,462.229 339.052,482.024 112.301,482.024 112.301,463.128 54.714,463.128 54.714,413.639 34.918,413.639 		"/>
		
			<line fill="none" stroke="#4D4038" stroke-width="1.5" stroke-miterlimit="10" x1="112.24" y1="413.639" x2="112.24" y2="463.128"/>
		<polyline fill="none" stroke="#4D4038" stroke-width="1.5" stroke-miterlimit="10" points="113.393,69.013 113.393,113.887 
			34.918,113.887 		"/>
		<polyline fill="none" stroke="#4D4038" stroke-width="1.5" stroke-miterlimit="10" points="74.282,113.887 74.282,413.639 
			54.714,413.639 		"/>
		
			<line fill="none" stroke="#4D4038" stroke-width="1.5" stroke-miterlimit="10" x1="34.918" y1="151.693" x2="74.155" y2="151.693"/>
		<line fill="none" stroke="#4D4038" stroke-width="1.5" stroke-miterlimit="10" x1="34.918" y1="195.15" x2="74.155" y2="195.15"/>
		
			<line fill="none" stroke="#4D4038" stroke-width="1.5" stroke-miterlimit="10" x1="34.918" y1="241.648" x2="74.155" y2="241.648"/>
		
			<line fill="none" stroke="#4D4038" stroke-width="1.5" stroke-miterlimit="10" x1="34.918" y1="282.931" x2="74.155" y2="282.931"/>
		
			<line fill="none" stroke="#4D4038" stroke-width="1.5" stroke-miterlimit="10" x1="34.918" y1="313.785" x2="74.155" y2="313.785"/>
		
			<line fill="none" stroke="#4D4038" stroke-width="1.5" stroke-miterlimit="10" x1="34.918" y1="356.372" x2="74.155" y2="356.372"/>
		<polyline fill="none" stroke="#4D4038" stroke-width="1.5" stroke-miterlimit="10" points="139.032,69.013 139.032,121.274 
			394.12,121.274 394.12,68.99 		"/>
		
			<line fill="none" stroke="#4D4038" stroke-width="1.5" stroke-miterlimit="10" x1="306.772" y1="121.274" x2="306.772" y2="69.013"/>
		
			<line fill="none" stroke="#4D4038" stroke-width="1.5" stroke-miterlimit="10" x1="254.625" y1="121.274" x2="254.625" y2="69.013"/>
		
			<line fill="none" stroke="#4D4038" stroke-width="1.5" stroke-miterlimit="10" x1="216.384" y1="121.274" x2="216.384" y2="69.013"/>
		
			<line fill="none" stroke="#4D4038" stroke-width="1.5" stroke-miterlimit="10" x1="177.708" y1="121.274" x2="177.708" y2="69.013"/>
		<polyline fill="none" stroke="#4D4038" stroke-width="1.5" stroke-miterlimit="10" points="713.43,313.485 713.43,442.14 
			586.726,442.14 586.726,454.971 501.723,454.971 501.723,398.836 523.106,398.836 523.106,313.832 376.088,313.832 
			376.088,398.908 501.723,398.836 		"/>
		<polyline fill="none" stroke="#4D4038" stroke-width="1.5" stroke-miterlimit="10" points="420.485,69.013 420.485,121.274 
			502.792,121.274 502.792,207.978 713.43,207.978 713.43,283.699 		"/>
		
			<line fill="none" stroke="#4D4038" stroke-width="1.5" stroke-miterlimit="10" x1="410.343" y1="398.889" x2="410.343" y2="462.229"/>
		<polyline fill="none" stroke="#4D4038" stroke-width="1.5" stroke-miterlimit="10" points="339.052,462.229 339.052,313.785 
			318.795,313.785 		"/>
		
			<line fill="none" stroke="#4D4038" stroke-width="1.5" stroke-miterlimit="10" x1="482.19" y1="121.274" x2="482.19" y2="69.013"/>
		
			<line fill="none" stroke="#4D4038" stroke-width="1.5" stroke-miterlimit="10" x1="502.792" y1="121.274" x2="544.759" y2="121.274"/>
		
			<line fill="none" stroke="#4D4038" stroke-width="1.5" stroke-miterlimit="10" x1="544.759" y1="69.013" x2="544.759" y2="207.978"/>
		
			<line fill="none" stroke="#4D4038" stroke-width="1.5" stroke-miterlimit="10" x1="633.996" y1="207.978" x2="633.996" y2="69.013"/>
		
			<line fill="none" stroke="#4D4038" stroke-width="1.5" stroke-miterlimit="10" x1="502.792" y1="183.706" x2="544.759" y2="183.706"/>
		
			<line fill="none" stroke="#4D4038" stroke-width="1.5" stroke-miterlimit="10" x1="523.774" y1="183.706" x2="523.774" y2="207.978"/>
		<polyline fill="none" stroke="#4D4038" stroke-width="1.5" stroke-miterlimit="10" points="633.996,89.261 700.629,89.261 
			700.629,207.978 		"/>
		
			<line fill="none" stroke="#4D4038" stroke-width="1.5" stroke-miterlimit="10" x1="713.43" y1="207.978" x2="806.051" y2="207.978"/>
		<polyline fill="none" stroke="#4D4038" stroke-width="1.5" stroke-miterlimit="10" points="781.747,207.978 781.747,232.319 
			806.051,232.319 		"/>
		
			<line fill="none" stroke="#4D4038" stroke-width="1.5" stroke-miterlimit="10" x1="786.256" y1="412.739" x2="713.43" y2="412.739"/>
		<polyline fill="none" stroke="#4D4038" stroke-width="1.5" stroke-miterlimit="10" points="713.43,442.14 713.43,462.229 
			729.568,462.229 		"/>
		
			<line fill="none" stroke="#4D4038" stroke-width="1.5" stroke-miterlimit="10" x1="684.985" y1="442.14" x2="684.985" y2="481.783"/>
		
			<line fill="none" stroke="#4D4038" stroke-width="1.5" stroke-miterlimit="10" x1="653.61" y1="442.14" x2="653.61" y2="481.783"/>
		
			<line fill="none" stroke="#4D4038" stroke-width="1.5" stroke-miterlimit="10" x1="621.026" y1="442.14" x2="621.026" y2="481.783"/>
		
			<line fill="none" stroke="#4D4038" stroke-width="1.5" stroke-miterlimit="10" x1="501.723" y1="454.971" x2="501.723" y2="462.229"/>
		
			<rect x="541.868" y="313.611" fill="none" stroke="#4D4038" stroke-width="1.5" stroke-miterlimit="10" width="44.035" height="85.275"/>
		
			<line fill="none" stroke="#4D4038" stroke-width="1.5" stroke-miterlimit="10" x1="541.868" y1="345.359" x2="585.903" y2="345.359"/>
		
			<line fill="none" stroke="#4D4038" stroke-width="1.5" stroke-miterlimit="10" x1="586.726" y1="454.971" x2="586.726" y2="481.783"/>
		
			<line fill="none" stroke="#4D4038" stroke-width="1.5" stroke-miterlimit="10" x1="567.435" y1="454.971" x2="567.435" y2="481.783"/>
		
			<line fill="none" stroke="#4D4038" stroke-width="1.5" stroke-miterlimit="10" x1="548.144" y1="454.971" x2="548.144" y2="481.783"/>
		
			<line fill="none" stroke="#4D4038" stroke-width="1.5" stroke-miterlimit="10" x1="528.852" y1="454.971" x2="528.852" y2="481.783"/>
		
			<line fill="none" stroke="#BDBCAF" stroke-width="0.5" stroke-miterlimit="10" x1="161.172" y1="313.785" x2="319.265" y2="313.785"/>
		<g opacity="0.5">
			<circle fill="none" stroke="#BDBCAF" stroke-width="0.5" stroke-miterlimit="10" cx="121.233" cy="300.983" r="24.113"/>
			<circle fill="none" stroke="#BDBCAF" stroke-width="0.5" stroke-miterlimit="10" cx="145.469" cy="297.653" r="22.135"/>
			<circle fill="none" stroke="#BDBCAF" stroke-width="0.5" stroke-miterlimit="10" cx="147.943" cy="274.896" r="17.682"/>
			<circle fill="none" stroke="#BDBCAF" stroke-width="0.5" stroke-miterlimit="10" cx="131.373" cy="280.09" r="12.736"/>
			<circle fill="none" stroke="#BDBCAF" stroke-width="0.5" stroke-miterlimit="10" cx="150.567" cy="318.3" r="11.871"/>
			<circle fill="none" stroke="#BDBCAF" stroke-width="0.5" stroke-miterlimit="10" cx="97.366" cy="300.317" r="15.828"/>
			<circle fill="none" stroke="#BDBCAF" stroke-width="0.5" stroke-miterlimit="10" cx="90.071" cy="309.978" r="12.489"/>
			<circle fill="none" stroke="#BDBCAF" stroke-width="0.5" stroke-miterlimit="10" cx="108.496" cy="314.714" r="18.425"/>
			<circle fill="none" stroke="#BDBCAF" stroke-width="0.5" stroke-miterlimit="10" cx="132.187" cy="323.249" r="19.167"/>
		</g>
		<path fill="none" stroke="#BDBCAF" stroke-width="0.5" stroke-miterlimit="10" d="M167.604,297.652
			c0-5.088-1.722-9.772-4.609-13.511c1.657-2.692,2.63-5.852,2.63-9.245c0-9.767-7.917-17.683-17.682-17.683
			c-7.076,0-13.162,4.165-15.989,10.169c-0.194-0.01-0.385-0.029-0.581-0.029c-5.958,0-10.945,4.096-12.337,9.621
			c-6.509,0.588-12.271,3.761-16.251,8.487c-1.693-0.618-3.513-0.973-5.419-0.973c-8.741,0-15.827,7.086-15.827,15.828
			c0,0.18,0.021,0.354,0.027,0.533c-2.445,2.279-3.984,5.52-3.984,9.125c0,6.897,5.591,12.489,12.489,12.489
			c0.567,0,1.122-0.051,1.669-0.124c2.902,6.363,9.305,10.796,16.756,10.796c2.326,0,4.542-0.447,6.59-1.231
			c3.163,6.231,9.63,10.513,17.101,10.513c8.153,0,15.113-5.094,17.883-12.271c0.166,0.009,0.329,0.022,0.497,0.022
			c6.556,0,11.871-5.312,11.871-11.87c0-1.843-0.432-3.581-1.181-5.137C165.18,309.169,167.604,303.695,167.604,297.652z"/>
	</g>
	
		<line fill="none" stroke="#4D4038" stroke-width="1.5" stroke-miterlimit="10" x1="713.43" y1="282.931" x2="632.876" y2="282.931"/>
	<line fill="none" stroke="#4D4038" stroke-width="1.5" stroke-miterlimit="10" x1="713.43" y1="314.19" x2="632.876" y2="314.19"/>
	
		<line fill="none" stroke="#4D4038" stroke-width="1.5" stroke-miterlimit="10" x1="586.726" y1="282.931" x2="502.792" y2="282.931"/>
</g>
<g id="fire">
	<g>
		<g>
			
				<line fill="none" stroke="#AF3E25" stroke-width="3" stroke-linecap="round" stroke-linejoin="round" x1="759.74" y1="446.444" x2="759.74" y2="513.998"/>
			<g>
				<path fill="#AF3E25" d="M744.646,494.763c0-0.495,0.242-0.979,0.69-1.267c0.697-0.445,1.626-0.239,2.071,0.459l12.328,19.357
					l12.328-19.357c0.441-0.698,1.373-0.904,2.067-0.459c0.697,0.445,0.899,1.378,0.46,2.07L761,516.911
					c-0.275,0.433-0.753,0.692-1.266,0.692c-0.517,0-0.99-0.264-1.27-0.692l-13.594-21.345
					C744.723,495.318,744.646,495.038,744.646,494.763C744.646,494.268,744.646,495.038,744.646,494.763z"/>
			</g>
		</g>
	</g>
	<g>
		<g>
			
				<line fill="none" stroke="#AF3E25" stroke-width="3" stroke-linecap="round" stroke-linejoin="round" x1="467.999" y1="446.444" x2="467.999" y2="513.998"/>
			<g>
				<path fill="#AF3E25" d="M452.905,494.763c0-0.495,0.246-0.979,0.69-1.267c0.697-0.445,1.626-0.239,2.071,0.459l12.328,19.357
					l12.328-19.357c0.442-0.698,1.374-0.904,2.069-0.459s0.897,1.378,0.462,2.07l-13.598,21.345
					c-0.271,0.433-0.753,0.692-1.266,0.692s-0.99-0.264-1.269-0.692l-13.595-21.345C452.98,495.318,452.905,495.038,452.905,494.763
					C452.905,494.268,452.905,495.038,452.905,494.763z"/>
			</g>
		</g>
	</g>
	<g>
		<g>
			
				<line fill="none" stroke="#AF3E25" stroke-width="3" stroke-linecap="round" stroke-linejoin="round" x1="648.969" y1="79.884" x2="648.969" y2="24.498"/>
			<g>
				<path fill="#AF3E25" d="M664.062,43.733c0,0.495-0.246,0.98-0.694,1.267c-0.697,0.445-1.626,0.239-2.071-0.46l-12.328-19.358
					L636.641,44.54c-0.441,0.699-1.374,0.905-2.067,0.46c-0.697-0.445-0.899-1.378-0.46-2.071l13.594-21.344
					c0.275-0.432,0.753-0.694,1.266-0.694c0.517,0,0.99,0.262,1.27,0.694l13.594,21.344
					C663.986,43.178,664.062,43.458,664.062,43.733C664.062,44.229,664.062,43.458,664.062,43.733z"/>
			</g>
		</g>
	</g>
	<g>
		<g>
			
				<line fill="none" stroke="#AF3E25" stroke-width="3" stroke-linecap="round" stroke-linejoin="round" x1="406.73" y1="79.884" x2="406.73" y2="24.498"/>
			<g>
				<path fill="#AF3E25" d="M421.824,43.733c0,0.495-0.246,0.98-0.695,1.267c-0.697,0.445-1.625,0.239-2.071-0.46L406.73,25.182
					L394.402,44.54c-0.442,0.699-1.374,0.905-2.068,0.46c-0.697-0.445-0.899-1.378-0.46-2.071l13.594-21.344
					c0.275-0.432,0.753-0.694,1.267-0.694c0.516,0,0.989,0.262,1.269,0.694l13.594,21.344
					C421.748,43.178,421.824,43.458,421.824,43.733C421.824,44.229,421.824,43.458,421.824,43.733z"/>
			</g>
		</g>
	</g>
	<g>
		<g>
			
				<line fill="none" stroke="#AF3E25" stroke-width="3" stroke-linecap="round" stroke-linejoin="round" x1="126.774" y1="79.884" x2="126.774" y2="24.498"/>
			<g>
				<path fill="#AF3E25" d="M141.869,43.733c0,0.495-0.246,0.98-0.695,1.267c-0.697,0.445-1.625,0.239-2.071-0.46l-12.328-19.358
					L114.446,44.54c-0.442,0.699-1.374,0.905-2.068,0.46c-0.697-0.445-0.899-1.378-0.46-2.071l13.594-21.344
					c0.275-0.432,0.753-0.694,1.266-0.694c0.516,0,0.99,0.262,1.269,0.694l13.594,21.344
					C141.792,43.178,141.869,43.458,141.869,43.733C141.869,44.229,141.869,43.458,141.869,43.733z"/>
			</g>
		</g>
	</g>
	<polygon fill="#AF3E25" points="536.44,319.513 533.629,322.513 531.837,317.513 530.175,322.513 527.25,319.513 527.484,324.106 
		528.35,328.986 530.389,328.986 529.962,324.555 530.823,325.681 531.846,323.986 532.81,325.625 533.697,324.56 533.301,328.986 
		535.341,328.986 536.041,324.668 	"/>
	<polygon fill="#AF3E25" points="494.275,437.216 491.464,440.216 489.672,435.216 488.01,440.216 485.085,437.216 485.319,441.809 
		486.185,446.689 488.224,446.689 487.797,442.258 488.658,443.384 489.681,441.689 490.645,443.328 491.532,442.263 
		491.136,446.689 493.176,446.689 493.876,442.371 	"/>
	<polygon fill="#AF3E25" points="333.519,321.359 330.707,324.359 328.915,319.359 327.253,324.359 324.328,321.359 
		324.562,325.952 325.428,330.833 327.467,330.833 327.04,326.401 327.901,327.527 328.924,325.833 329.888,327.472 
		330.775,326.406 330.379,330.833 332.419,330.833 333.119,326.515 	"/>
	<polygon fill="#AF3E25" points="172.199,469.239 169.388,472.239 167.596,467.239 165.934,472.239 163.009,469.239 
		163.243,473.832 164.108,478.713 166.147,478.713 165.721,474.281 166.582,475.407 167.604,473.713 168.568,475.352 
		169.456,474.286 169.06,478.713 171.1,478.713 171.8,474.395 	"/>
	<polygon fill="#AF3E25" points="88.072,192.105 85.261,195.105 83.469,190.105 81.807,195.105 78.882,192.105 79.116,196.698 
		79.981,201.579 82.021,201.579 81.594,197.147 82.455,198.273 83.478,196.579 84.441,198.218 85.329,197.152 84.933,201.579 
		86.973,201.579 87.673,197.261 	"/>
	<polygon fill="#AF3E25" points="135.968,92.103 133.157,95.103 131.365,90.103 129.703,95.103 126.778,92.103 127.012,96.696 
		127.877,101.577 129.917,101.577 129.49,97.145 130.351,98.271 131.374,96.577 132.337,98.215 133.225,97.15 132.829,101.577 
		134.869,101.577 135.569,97.258 	"/>
	<polygon fill="#AF3E25" points="417.567,110.15 414.756,113.15 412.964,108.15 411.302,113.15 408.377,110.15 408.611,114.743 
		409.477,119.624 411.516,119.624 411.089,115.192 411.95,116.318 412.973,114.624 413.938,116.263 414.824,115.197 
		414.428,119.624 416.468,119.624 417.168,115.306 	"/>
	<polygon fill="#AF3E25" points="565.783,213.878 562.972,216.878 561.18,211.878 559.518,216.878 556.593,213.878 556.827,218.471 
		557.692,223.352 559.731,223.352 559.305,218.92 560.166,220.046 561.188,218.351 562.152,219.991 563.04,218.925 562.644,223.352 
		564.684,223.352 565.384,219.033 	"/>
	<polygon fill="#AF3E25" points="714.872,193.766 712.061,196.766 710.269,191.766 708.606,196.766 705.682,193.766 
		705.916,198.359 706.781,203.24 708.82,203.24 708.394,198.809 709.255,199.934 710.277,198.239 711.241,199.879 712.129,198.813 
		711.732,203.24 713.771,203.24 714.473,198.921 	"/>
	<polygon fill="#AF3E25" points="727.095,399.786 724.283,402.786 722.491,397.786 720.829,402.786 717.904,399.786 
		718.139,404.379 719.004,409.26 721.043,409.26 720.616,404.828 721.479,405.954 722.5,404.26 723.464,405.898 724.352,404.833 
		723.955,409.26 725.995,409.26 726.695,404.941 	"/>
	<polygon fill="#AF3E25" points="710.872,399.786 708.061,402.786 706.269,397.786 704.606,402.786 701.682,399.786 
		701.916,404.379 702.781,409.26 704.82,409.26 704.394,404.828 705.255,405.954 706.277,404.26 707.241,405.898 708.129,404.833 
		707.732,409.26 709.771,409.26 710.473,404.941 	"/>
</g>
</svg>
